<svg xmlns="http://www.w3.org/2000/svg" width="37" height="27" viewBox="0 0 37 27">
    <path fill="#E88A74" fill-rule="evenodd" d="M24.231 12.694c.476.267.77.78.769 1.336a1.523 1.523 0 0 1-.778 1.331l-8.045 4.442c-.22.122-.46.183-.7.183-.261 0-.522-.073-.758-.217A1.513 1.513 0 0 1 14 18.467V9.505c0-.541.27-1.03.724-1.305.454-.276 1-.286 1.463-.026l8.044 4.52zm-8.097 4.646l6.012-3.32-6.012-3.378v6.698zm18.63-2.493v-2.666c0-2.682-.246-5.439-.262-5.617-.093-.813-.455-2.316-1.041-2.905l-.009-.009c-.943-.97-1.97-1.083-2.65-1.158a20.38 20.38 0 0 1-.19-.022c-4.749-.331-11.892-.38-12.148-.382-.256.002-7.402.051-12.193.382l-.176.02c-.66.074-1.66.186-2.608 1.191-.572.6-.952 2.084-1.062 2.893-.023.255-.261 2.97-.261 5.607v2.666c0 2.677.245 5.428.262 5.616.092.798.455 2.275 1.041 2.864l.02.02c.851.904 1.959 1.026 2.768 1.116.16.017.31.034.45.056 2.733.245 11.442.374 11.808.379.327-.002 7.421-.053 12.143-.382.07-.009.147-.017.23-.025.69-.07 1.635-.167 2.555-1.144.596-.625.97-2.204 1.061-2.892.023-.25.262-2.968.262-5.608zm1.892-8.478c.011.12.272 2.96.272 5.812v2.666c0 2.852-.26 5.693-.272 5.813l-.004.036c-.036.28-.39 2.776-1.614 4.06-1.47 1.56-3.127 1.73-3.923 1.811a7.878 7.878 0 0 0-.207.023l-.064.006c-4.882.343-12.255.39-12.329.39h-.022c-.375-.006-9.213-.133-12.032-.392l-.085-.011c-.088-.015-.217-.03-.368-.046-.95-.105-2.716-.3-4.113-1.775C.615 23.464.305 20.96.274 20.678l-.002-.018C.26 20.54 0 17.7 0 14.847v-2.666C0 9.33.26 6.488.272 6.37l.004-.036c.036-.28.39-2.777 1.614-4.06C3.38.69 5.046.505 5.847.415l.173-.02.065-.006C11.01.047 18.384 0 18.457 0H18.47c.074 0 7.447.047 12.329.39l.064.006.184.022c.81.088 2.494.274 3.98 1.8 1.285 1.297 1.596 3.848 1.628 4.135l.001.016z"/>
</svg>
