<svg xmlns="http://www.w3.org/2000/svg" xmlns:xlink="http://www.w3.org/1999/xlink" width="41" height="41" viewBox="0 0 41 41">
    <defs>
        <path id="a" d="M0 .29h40.708v40.35H0z"/>
    </defs>
    <g fill="none" fill-rule="evenodd">
        <g transform="translate(0 .07)">
            <mask id="b" fill="#fff">
                <use xlink:href="#a"/>
            </mask>
            <path fill="#FFF" d="M20.354.29c11.241 0 20.354 9.032 20.354 20.175 0 11.142-9.113 20.175-20.354 20.175S0 31.607 0 20.465C0 9.322 9.113.289 20.354.289" mask="url(#b)"/>
        </g>
        <path fill="#1A3D52" d="M19.585 29.384h1.598s.482-.052.729-.316c.227-.241.22-.696.22-.696s-.032-2.124.963-2.437c.98-.308 2.24 2.054 3.575 2.962 1.01.687 1.776.536 1.776.536l3.57-.049s1.867-.114.981-1.57c-.072-.118-.515-1.075-2.653-3.043-2.238-2.059-1.939-1.726.757-5.287 1.642-2.17 2.298-3.494 2.093-4.06-.195-.541-1.403-.398-1.403-.398l-4.018.025s-.298-.04-.52.09c-.215.129-.354.428-.354.428s-.636 1.678-1.484 3.106c-1.79 3.012-2.505 3.17-2.798 2.984-.68-.436-.51-1.751-.51-2.686 0-2.919.446-4.136-.87-4.45-.437-.105-.758-.174-1.876-.186-1.433-.014-2.647.005-3.334.339-.458.221-.81.716-.595.744.265.036.867.161 1.186.592.412.555.397 1.802.397 1.802s.237 3.436-.553 3.863c-.541.293-1.284-.305-2.88-3.037-.817-1.4-1.434-2.947-1.434-2.947s-.12-.29-.332-.444c-.257-.188-.617-.247-.617-.247l-3.819.025s-.573.015-.784.262c-.187.22-.015.675-.015.675s2.99 6.933 6.375 10.427c3.104 3.203 6.63 2.993 6.63 2.993"/>
    </g>
</svg>
