<svg xmlns="http://www.w3.org/2000/svg" xmlns:xlink="http://www.w3.org/1999/xlink" width="41" height="41" viewBox="0 0 41 41">
    <defs>
        <path id="a" d="M0 .114h32.9v40.884H0z"/>
    </defs>
    <g fill="none" fill-rule="evenodd">
        <path fill="#FFF" d="M28.522 23.886l3.746-3.386 3.384 3.744-3.746 3.386zM20.5 27.395l4.69-4.221 4.223 4.692-4.69 4.221zM36.543 20.83l2.114 2.344L41 21.064v-.006l-2.111-2.34zM22.283 8.726l3.752-3.378L29.413 9.1l-3.752 3.378zM32.978 13.7l2.34-2.113 2.117 2.342-2.34 2.114zM16.935 19.376l4.689-4.224 4.224 4.692-4.692 4.221zM13.37 10.461l4.689-4.222 4.224 4.69-4.693 4.223zM25.848 15.86l3.743-3.382 3.387 3.753-3.746 3.378zM30.304 6.57l2.344-2.113L34.761 6.8l-2.344 2.113zM32.087 31.01l3.75-3.38 3.38 3.751-3.747 3.38z"/>
        <g>
            <mask id="b" fill="#fff">
                <use xlink:href="#a"/>
            </mask>
            <path fill="#FFF" d="M28.826 31.85l-4.706 4.382-7.95-8.93 2.208-1.965-5.563-6.29 2.22-1.968-5.649-6.285 8.82-8.012 2.796 3.094 4.728-4.258 2.793 2.922 1.863-1.684a18.093 18.093 0 0 0-1.252-.669A20.022 20.022 0 0 0 20.253.114C9.103.114-.001 9.297-.001 20.56c0 11.256 9.103 20.439 20.254 20.439 3.626 0 7.037-.965 9.982-2.662a22.178 22.178 0 0 0 2.664-1.786l-4.073-4.7z" mask="url(#b)"/>
        </g>
    </g>
</svg>
